<svg width="328" height="411" viewBox="0 0 328 411" fill="none" xmlns="http://www.w3.org/2000/svg">
<path d="M157.5 308L131.906 242.609H49.5L24.1875 308H0L81.2812 101.562H101.391L182.25 308H157.5ZM124.453 221.094L100.547 157.391C97.4531 149.328 94.2656 139.438 90.9844 127.719C88.9219 136.719 85.9688 146.609 82.125 157.391L57.9375 221.094H124.453Z" fill="#2B2121"/>
<path d="M157.266 103V308.594H181.172V103H157.266Z" fill="#2B2121"/>
<path d="M210.776 298.528C210.776 301.856 209.539 304.373 207.064 306.08C204.589 307.787 201.261 308.64 197.08 308.64C194.691 308.64 192.621 308.448 190.872 308.064C189.165 307.68 187.651 307.147 186.328 306.464V301.344C187.693 302.027 189.336 302.667 191.256 303.264C193.219 303.819 195.203 304.096 197.208 304.096C200.067 304.096 202.136 303.648 203.416 302.752C204.696 301.813 205.336 300.576 205.336 299.04C205.336 298.187 205.101 297.419 204.632 296.736C204.163 296.053 203.309 295.371 202.072 294.688C200.877 294.005 199.149 293.237 196.888 292.384C194.669 291.531 192.771 290.677 191.192 289.824C189.613 288.971 188.397 287.947 187.544 286.752C186.691 285.557 186.264 284.021 186.264 282.144C186.264 279.243 187.437 277.003 189.784 275.424C192.173 273.845 195.288 273.056 199.128 273.056C201.219 273.056 203.16 273.269 204.952 273.696C206.787 274.08 208.493 274.635 210.072 275.36L208.152 279.84C206.701 279.243 205.187 278.731 203.608 278.304C202.029 277.877 200.408 277.664 198.744 277.664C196.44 277.664 194.669 278.048 193.432 278.816C192.237 279.541 191.64 280.544 191.64 281.824C191.64 282.763 191.917 283.573 192.472 284.256C193.027 284.896 193.944 285.536 195.224 286.176C196.547 286.773 198.296 287.499 200.472 288.352C202.648 289.163 204.504 289.995 206.04 290.848C207.576 291.701 208.749 292.747 209.56 293.984C210.371 295.179 210.776 296.693 210.776 298.528ZM235.065 273.056C235.705 273.056 236.388 273.099 237.113 273.184C237.881 273.227 238.542 273.312 239.097 273.44L238.393 278.624C237.838 278.496 237.22 278.389 236.537 278.304C235.897 278.219 235.278 278.176 234.681 278.176C232.932 278.176 231.289 278.667 229.753 279.648C228.217 280.587 226.98 281.931 226.041 283.68C225.145 285.387 224.697 287.392 224.697 289.696V308H219.065V273.696H223.673L224.313 279.968H224.569C225.678 278.091 227.108 276.469 228.857 275.104C230.606 273.739 232.676 273.056 235.065 273.056ZM257.501 273.056C260.445 273.056 262.962 273.696 265.053 274.976C267.186 276.256 268.807 278.069 269.917 280.416C271.069 282.72 271.645 285.429 271.645 288.544V291.936H248.157C248.242 295.819 249.223 298.784 251.101 300.832C253.021 302.837 255.687 303.84 259.101 303.84C261.277 303.84 263.197 303.648 264.861 303.264C266.567 302.837 268.317 302.24 270.109 301.472V306.4C268.359 307.168 266.631 307.723 264.925 308.064C263.218 308.448 261.191 308.64 258.845 308.64C255.602 308.64 252.722 307.979 250.205 306.656C247.73 305.333 245.789 303.371 244.381 300.768C243.015 298.123 242.333 294.901 242.333 291.104C242.333 287.349 242.951 284.128 244.189 281.44C245.469 278.752 247.239 276.683 249.501 275.232C251.805 273.781 254.471 273.056 257.501 273.056ZM257.437 277.664C254.749 277.664 252.615 278.539 251.037 280.288C249.501 281.995 248.583 284.384 248.285 287.456H265.757C265.714 284.555 265.031 282.208 263.709 280.416C262.386 278.581 260.295 277.664 257.437 277.664ZM293.37 273.12C297.551 273.12 300.644 274.037 302.65 275.872C304.655 277.707 305.658 280.629 305.658 284.64V308H301.562L300.474 303.136H300.218C298.724 305.013 297.146 306.4 295.482 307.296C293.86 308.192 291.599 308.64 288.698 308.64C285.583 308.64 283.002 307.829 280.954 306.208C278.906 304.544 277.882 301.963 277.882 298.464C277.882 295.051 279.226 292.427 281.914 290.592C284.602 288.715 288.74 287.691 294.33 287.52L300.154 287.328V285.28C300.154 282.421 299.535 280.437 298.298 279.328C297.06 278.219 295.311 277.664 293.05 277.664C291.258 277.664 289.551 277.941 287.93 278.496C286.308 279.008 284.794 279.605 283.385 280.288L281.658 276.064C283.151 275.253 284.922 274.571 286.97 274.016C289.018 273.419 291.151 273.12 293.37 273.12ZM300.09 291.232L295.034 291.424C290.767 291.595 287.802 292.277 286.138 293.472C284.516 294.667 283.706 296.352 283.706 298.528C283.706 300.448 284.282 301.856 285.434 302.752C286.628 303.648 288.143 304.096 289.978 304.096C292.879 304.096 295.29 303.307 297.21 301.728C299.13 300.107 300.09 297.632 300.09 294.304V291.232ZM321.885 308H316.253V259.36H321.885V308Z" fill="#2B2121"/>
</svg>
